<?xml version="1.0" encoding="UTF-8" standalone="no"?>
<!-- Created with Inkscape (http://www.inkscape.org/) -->

<svg
   width="700"
   height="900"
   viewBox="0 0 201.17671 258.65577"
   version="1.1"
   id="svg5"
   inkscape:version="1.2.1 (9c6d41e410, 2022-07-14)"
   sodipodi:docname="first_place.svg"
   inkscape:export-filename="first_place.png"
   inkscape:export-xdpi="96"
   inkscape:export-ydpi="96"
   xmlns:inkscape="http://www.inkscape.org/namespaces/inkscape"
   xmlns:sodipodi="http://sodipodi.sourceforge.net/DTD/sodipodi-0.dtd"
   xmlns="http://www.w3.org/2000/svg"
   xmlns:svg="http://www.w3.org/2000/svg">
  <sodipodi:namedview
     id="namedview7"
     pagecolor="#ffffff"
     bordercolor="#000000"
     borderopacity="0.25"
     inkscape:showpageshadow="2"
     inkscape:pageopacity="0.0"
     inkscape:pagecheckerboard="true"
     inkscape:deskcolor="#d1d1d1"
     inkscape:document-units="px"
     showgrid="false"
     showguides="false"
     inkscape:zoom="0.914906"
     inkscape:cx="397.30857"
     inkscape:cy="561.25984"
     inkscape:window-width="2560"
     inkscape:window-height="1351"
     inkscape:window-x="-9"
     inkscape:window-y="-9"
     inkscape:window-maximized="1"
     inkscape:current-layer="layer1" />
  <defs
     id="defs2" />
  <g
     inkscape:label="Layer 1"
     inkscape:groupmode="layer"
     id="layer1">
    <g
       id="g5025">
      <g
         id="g1059"
         style="fill:#010099;fill-opacity:1">
        <rect
           style="font-variation-settings:'wght' 600;fill:#010099;fill-opacity:1;fill-rule:nonzero;stroke:none;stroke-width:0;stroke-dasharray:none"
           id="rect273"
           width="44.665051"
           height="198.85179"
           x="-5.6784803e-08"
           y="-2.5605827e-16"
           transform="matrix(1,0,0.49802216,0.8671643,0,0)" />
        <rect
           style="font-variation-settings:'wght' 600;fill:#010099;fill-opacity:1;fill-rule:nonzero;stroke:none;stroke-width:0;stroke-dasharray:none"
           id="rect273-3"
           width="44.590225"
           height="198.88907"
           x="-201.17671"
           y="0"
           transform="matrix(-1,0,-0.49830503,0.86700179,0,0)" />
      </g>
      <circle
         style="font-variation-settings:'wght' 600;fill:#e09800;fill-opacity:1;stroke-width:0.390207"
         id="path111"
         cx="100.58836"
         cy="165.2523"
         r="93.403473" />
    </g>
    <g
       id="g4293"
       transform="translate(-17.022687)">
      <g
         aria-label="1"
         transform="scale(1.0015709,0.99843157)"
         id="text1115"
         style="font-size:140.609px;font-family:Inter;-inkscape-font-specification:'Inter, @wght=600';font-variation-settings:'wght' 600;fill:#996a00;stroke-width:0">
        <path
           d="M 114.77764,114.3816 V 216.64268 H 96.252807 v -84.23557 h -0.599186 l -23.91751,15.27925 V 130.70942 L 97.151586,114.3816 Z"
           id="path4280" />
      </g>
      <g
         aria-label="st"
         id="text4278"
         style="font-size:85.3446px;font-family:Inter;-inkscape-font-specification:'Inter, @wght=600';font-variation-settings:'wght' 600;fill:#996a00;stroke-width:0"
         transform="matrix(0.59046048,0,0,0.59046048,2.4135711,83.171096)">
        <path
           d="m 238.44415,76.011105 -10.00132,1.091053 q -0.42429,-1.515351 -1.48504,-2.848861 -1.03044,-1.333509 -2.78825,-2.151799 -1.7578,-0.81829 -4.30359,-0.81829 -3.4247,0 -5.75834,1.485045 -2.30333,1.485044 -2.27303,3.848993 -0.0303,2.030571 1.48505,3.303466 1.54566,1.272895 5.09158,2.091185 l 7.94044,1.697194 q 6.60693,1.42443 9.81948,4.515747 3.24285,3.091317 3.27316,8.091977 -0.0303,4.394515 -2.5761,7.758595 -2.51548,3.33378 -7.00092,5.21281 -4.48545,1.87904 -10.30439,1.87904 -8.54659,0 -13.7594,-3.57623 -5.21281,-3.60654 -6.21294,-10.031627 l 10.69838,-1.030439 q 0.72737,3.151931 3.09132,4.758206 2.36395,1.60627 6.15233,1.60627 3.90961,0 6.27355,-1.60627 2.39426,-1.606275 2.39426,-3.970223 0,-2.000264 -1.54566,-3.303466 -1.51535,-1.303202 -4.7279,-2.000264 l -7.94044,-1.666887 q -6.69785,-1.394123 -9.9104,-4.697589 -3.21254,-3.333774 -3.18224,-8.425355 -0.0303,-4.303598 2.33365,-7.455529 2.39425,-3.182238 6.63724,-4.909739 4.27329,-1.757808 9.84978,-1.757808 8.1829,0 12.88049,3.485309 4.72789,3.485308 5.84925,9.425486 z"
           id="path4283" />
        <path
           d="m 271.75156,63.706451 v 8.485968 h -26.7611 V 63.706451 Z M 251.59739,52.553464 h 10.97114 v 43.702737 q 0,2.212413 0.66676,3.394387 0.69706,1.151672 1.81842,1.575962 1.12136,0.4243 2.48518,0.4243 1.03044,0 1.87903,-0.15153 0.87891,-0.15154 1.33351,-0.27277 l 1.84873,8.57689 q -0.8789,0.30307 -2.51548,0.66676 -1.60627,0.36368 -3.93992,0.4243 -4.12175,0.12122 -7.42522,-1.24259 -3.30346,-1.39412 -5.24311,-4.3036 -1.90935,-2.90947 -1.87904,-7.273687 z"
           id="path4285" />
      </g>
    </g>
  </g>
</svg>
